<svg width="373" height="74" viewBox="0 0 373 74" fill="none" xmlns="http://www.w3.org/2000/svg">
<path fill-rule="evenodd" clip-rule="evenodd" d="M60.7511 15.8683L57.0491 19.7344L57.0402 40.8672L57.0312 62H60.702H64.3728L64.413 51.0645L64.4531 40.1291L73.0698 50.6348C77.8092 56.413 81.825 61.3123 81.9942 61.5223L82.3016 61.9039L85.018 59.4281C86.512 58.0664 87.7344 56.897 87.7344 56.8297C87.7344 56.7623 84.5352 52.7569 80.625 47.9284C76.7148 43.1002 73.4922 39.088 73.4636 39.0123C73.4345 38.9359 74.9933 38.8736 76.9792 38.872L80.5469 38.8689L84.2578 34.9736L87.9688 31.0783V25.425V19.7716L85.8306 17.4873C84.6545 16.2311 82.9859 14.4825 82.1225 13.6016L80.5525 12L72.5028 12.0011L64.4531 12.0022L60.7511 15.8683ZM77.3186 19.7592L80.625 19.8622V25.5422V31.222L73.8672 31.1814L67.1094 31.1406L65.7561 33.875L64.4028 36.6094L64.3889 28.1328L64.375 19.6562H69.1936C71.8438 19.6562 75.5 19.7027 77.3186 19.7592Z" fill="white"/>
<path d="M126.52 46L122.585 38.8572H121.48V46H116.871V27.0784H124.606C126.098 27.0784 127.365 27.339 128.407 27.8601C129.467 28.3812 130.258 29.0999 130.779 30.0164C131.3 30.9148 131.561 31.9211 131.561 33.0352C131.561 34.293 131.201 35.4161 130.482 36.4044C129.782 37.3927 128.739 38.0935 127.356 38.5068L131.722 46H126.52ZM121.48 35.5958H124.337C125.181 35.5958 125.81 35.3892 126.224 34.9759C126.655 34.5626 126.871 33.9786 126.871 33.2239C126.871 32.5051 126.655 31.9391 126.224 31.5258C125.81 31.1125 125.181 30.9058 124.337 30.9058H121.48V35.5958ZM139.063 27.0784V46H134.454V27.0784H139.063ZM149.249 46.1887C147.866 46.1887 146.626 45.9641 145.53 45.5148C144.434 45.0656 143.553 44.4007 142.888 43.5202C142.241 42.6398 141.9 41.5796 141.864 40.3397H146.77C146.842 41.0405 147.084 41.5796 147.497 41.9569C147.911 42.3163 148.45 42.496 149.115 42.496C149.797 42.496 150.337 42.3433 150.732 42.0378C151.127 41.7143 151.325 41.2741 151.325 40.717C151.325 40.2498 151.163 39.8635 150.84 39.558C150.534 39.2526 150.148 39.001 149.681 38.8033C149.231 38.6057 148.585 38.381 147.74 38.1295C146.518 37.7521 145.521 37.3748 144.748 36.9974C143.975 36.6201 143.311 36.063 142.754 35.3263C142.196 34.5895 141.918 33.6282 141.918 32.4422C141.918 30.6812 142.556 29.3066 143.832 28.3183C145.107 27.312 146.77 26.8089 148.818 26.8089C150.903 26.8089 152.583 27.312 153.858 28.3183C155.134 29.3066 155.817 30.6902 155.907 32.4692H150.921C150.885 31.8582 150.66 31.382 150.247 31.0406C149.833 30.6812 149.303 30.5015 148.656 30.5015C148.099 30.5015 147.65 30.6543 147.309 30.9598C146.967 31.2473 146.797 31.6695 146.797 32.2266C146.797 32.8375 147.084 33.3137 147.659 33.6551C148.234 33.9966 149.133 34.3649 150.354 34.7602C151.576 35.1735 152.565 35.5689 153.319 35.9462C154.092 36.3236 154.757 36.8716 155.314 37.5904C155.871 38.3092 156.15 39.2346 156.15 40.3666C156.15 41.4448 155.871 42.4241 155.314 43.3046C154.775 44.1851 153.984 44.8859 152.942 45.407C151.9 45.9281 150.669 46.1887 149.249 46.1887ZM172.598 27.0784V30.7711H167.584V46H162.975V30.7711H157.962V27.0784H172.598ZM179.52 30.7711V34.5985H185.692V38.1564H179.52V42.3073H186.501V46H174.911V27.0784H186.501V30.7711H179.52ZM200.464 46L194.102 37.6443V46H189.493V27.0784H194.102V35.3802L200.41 27.0784H205.827L198.496 36.3505L206.097 46H200.464ZM235.428 27.0784V46H230.818V34.6524L226.587 46H222.867L218.608 34.6255V46H213.999V27.0784H219.444L224.754 40.178L230.01 27.0784H235.428ZM252.92 38.2373C252.92 38.6686 252.893 39.1178 252.839 39.585H242.408C242.48 40.5194 242.776 41.2382 243.297 41.7413C243.836 42.2265 244.492 42.469 245.265 42.469C246.415 42.469 247.215 41.9839 247.664 41.0135H252.569C252.318 42.0018 251.86 42.8913 251.195 43.682C250.548 44.4726 249.73 45.0926 248.742 45.5418C247.754 45.991 246.649 46.2156 245.427 46.2156C243.953 46.2156 242.641 45.9012 241.491 45.2722C240.341 44.6433 239.443 43.7449 238.796 42.5769C238.149 41.4089 237.826 40.0432 237.826 38.4799C237.826 36.9166 238.14 35.5509 238.769 34.3829C239.416 33.2149 240.314 32.3164 241.464 31.6875C242.614 31.0586 243.935 30.7441 245.427 30.7441C246.882 30.7441 248.176 31.0496 249.308 31.6606C250.44 32.2715 251.321 33.143 251.949 34.2751C252.596 35.4071 252.92 36.7279 252.92 38.2373ZM248.203 37.0244C248.203 36.2337 247.933 35.6048 247.394 35.1376C246.855 34.6704 246.181 34.4368 245.373 34.4368C244.6 34.4368 243.944 34.6614 243.405 35.1106C242.884 35.5599 242.561 36.1978 242.435 37.0244H248.203ZM254.435 38.4529C254.435 36.9076 254.722 35.5509 255.297 34.3829C255.89 33.2149 256.69 32.3164 257.696 31.6875C258.703 31.0586 259.826 30.7441 261.066 30.7441C262.054 30.7441 262.952 30.9508 263.761 31.3641C264.587 31.7774 265.234 32.3344 265.702 33.0352V26.0542H270.311V46H265.702V43.8437C265.27 44.5625 264.65 45.1375 263.842 45.5687C263.051 46 262.126 46.2156 261.066 46.2156C259.826 46.2156 258.703 45.9012 257.696 45.2722C256.69 44.6254 255.89 43.7179 255.297 42.5499C254.722 41.3639 254.435 39.9983 254.435 38.4529ZM265.702 38.4799C265.702 37.3298 265.378 36.4224 264.731 35.7575C264.102 35.0927 263.33 34.7602 262.413 34.7602C261.497 34.7602 260.715 35.0927 260.068 35.7575C259.439 36.4044 259.125 37.3029 259.125 38.4529C259.125 39.603 259.439 40.5194 260.068 41.2022C260.715 41.8671 261.497 42.1995 262.413 42.1995C263.33 42.1995 264.102 41.8671 264.731 41.2022C265.378 40.5374 265.702 39.6299 265.702 38.4799ZM280.491 46.1887C279.108 46.1887 277.868 45.9641 276.772 45.5148C275.676 45.0656 274.795 44.4007 274.13 43.5202C273.483 42.6398 273.142 41.5796 273.106 40.3397H278.012C278.084 41.0405 278.326 41.5796 278.739 41.9569C279.153 42.3163 279.692 42.496 280.357 42.496C281.04 42.496 281.579 42.3433 281.974 42.0378C282.369 41.7143 282.567 41.2741 282.567 40.717C282.567 40.2498 282.405 39.8635 282.082 39.558C281.776 39.2526 281.39 39.001 280.923 38.8033C280.473 38.6057 279.827 38.381 278.982 38.1295C277.76 37.7521 276.763 37.3748 275.99 36.9974C275.217 36.6201 274.553 36.063 273.996 35.3263C273.439 34.5895 273.16 33.6282 273.16 32.4422C273.16 30.6812 273.798 29.3066 275.074 28.3183C276.35 27.312 278.012 26.8089 280.06 26.8089C282.145 26.8089 283.825 27.312 285.101 28.3183C286.376 29.3066 287.059 30.6902 287.149 32.4692H282.163C282.127 31.8582 281.902 31.382 281.489 31.0406C281.075 30.6812 280.545 30.5015 279.898 30.5015C279.341 30.5015 278.892 30.6543 278.551 30.9598C278.209 31.2473 278.039 31.6695 278.039 32.2266C278.039 32.8375 278.326 33.3137 278.901 33.6551C279.476 33.9966 280.375 34.3649 281.597 34.7602C282.818 35.1735 283.807 35.5689 284.561 35.9462C285.334 36.3236 285.999 36.8716 286.556 37.5904C287.113 38.3092 287.392 39.2346 287.392 40.3666C287.392 41.4448 287.113 42.4241 286.556 43.3046C286.017 44.1851 285.226 44.8859 284.184 45.407C283.142 45.9281 281.911 46.1887 280.491 46.1887ZM299.177 46.1887C297.398 46.1887 295.763 45.7754 294.271 44.9488C292.798 44.1222 291.621 42.9722 290.74 41.4987C289.878 40.0073 289.446 38.3361 289.446 36.4853C289.446 34.6345 289.878 32.9723 290.74 31.4988C291.621 30.0254 292.798 28.8753 294.271 28.0487C295.763 27.2222 297.398 26.8089 299.177 26.8089C300.956 26.8089 302.582 27.2222 304.055 28.0487C305.547 28.8753 306.715 30.0254 307.559 31.4988C308.422 32.9723 308.853 34.6345 308.853 36.4853C308.853 38.3361 308.422 40.0073 307.559 41.4987C306.697 42.9722 305.529 44.1222 304.055 44.9488C302.582 45.7754 300.956 46.1887 299.177 46.1887ZM299.177 41.9839C300.686 41.9839 301.89 41.4807 302.789 40.4745C303.705 39.4682 304.163 38.1385 304.163 36.4853C304.163 34.8142 303.705 33.4844 302.789 32.4961C301.89 31.4898 300.686 30.9867 299.177 30.9867C297.649 30.9867 296.427 31.4809 295.511 32.4692C294.613 33.4575 294.163 34.7962 294.163 36.4853C294.163 38.1564 294.613 39.4951 295.511 40.5014C296.427 41.4897 297.649 41.9839 299.177 41.9839ZM318.264 46.1887C316.88 46.1887 315.64 45.9641 314.544 45.5148C313.448 45.0656 312.567 44.4007 311.903 43.5202C311.256 42.6398 310.914 41.5796 310.878 40.3397H315.784C315.856 41.0405 316.098 41.5796 316.512 41.9569C316.925 42.3163 317.464 42.496 318.129 42.496C318.812 42.496 319.351 42.3433 319.746 42.0378C320.141 41.7143 320.339 41.2741 320.339 40.717C320.339 40.2498 320.177 39.8635 319.854 39.558C319.548 39.2526 319.162 39.001 318.695 38.8033C318.246 38.6057 317.599 38.381 316.754 38.1295C315.532 37.7521 314.535 37.3748 313.762 36.9974C312.99 36.6201 312.325 36.063 311.768 35.3263C311.211 34.5895 310.932 33.6282 310.932 32.4422C310.932 30.6812 311.57 29.3066 312.846 28.3183C314.122 27.312 315.784 26.8089 317.832 26.8089C319.917 26.8089 321.597 27.312 322.873 28.3183C324.149 29.3066 324.831 30.6902 324.921 32.4692H319.935C319.899 31.8582 319.674 31.382 319.261 31.0406C318.848 30.6812 318.318 30.5015 317.671 30.5015C317.114 30.5015 316.664 30.6543 316.323 30.9598C315.982 31.2473 315.811 31.6695 315.811 32.2266C315.811 32.8375 316.098 33.3137 316.673 33.6551C317.248 33.9966 318.147 34.3649 319.369 34.7602C320.591 35.1735 321.579 35.5689 322.334 35.9462C323.106 36.3236 323.771 36.8716 324.328 37.5904C324.885 38.3092 325.164 39.2346 325.164 40.3666C325.164 41.4448 324.885 42.4241 324.328 43.3046C323.789 44.1851 322.999 44.8859 321.956 45.407C320.914 45.9281 319.683 46.1887 318.264 46.1887Z" fill="white"/>
</svg>
